<svg width="364" height="363" viewBox="0 0 364 363" fill="none" xmlns="http://www.w3.org/2000/svg">
<g filter="url(#filter0_d)">
<mask id="path-1-inside-1" fill="white">
<path fill-rule="evenodd" clip-rule="evenodd" d="M335.069 235C346.114 235 355.069 226.046 355.069 215V45.315C355.069 44.4349 355.012 43.5681 354.902 42.7181L360 7.62939e-05L273.747 25.315L140 25.315C128.955 25.315 120 34.2693 120 45.315L120 215C120 226.046 128.955 235 140 235L335.069 235Z"/>
</mask>
<path fill-rule="evenodd" clip-rule="evenodd" d="M335.069 235C346.114 235 355.069 226.046 355.069 215V45.315C355.069 44.4349 355.012 43.5681 354.902 42.7181L360 7.62939e-05L273.747 25.315L140 25.315C128.955 25.315 120 34.2693 120 45.315L120 215C120 226.046 128.955 235 140 235L335.069 235Z" fill="#ECFFFE"/>
<path d="M354.902 42.7181L351.923 42.3626L351.879 42.7334L351.927 43.1038L354.902 42.7181ZM360 7.62939e-05L362.979 0.355599L363.518 -4.15888L359.155 -2.8785L360 7.62939e-05ZM273.747 25.315V28.315H274.178L274.592 28.1936L273.747 25.315ZM352.069 215C352.069 224.389 344.458 232 335.069 232V238C347.771 238 358.069 227.703 358.069 215H352.069ZM352.069 45.315V215H358.069V45.315H352.069ZM351.927 43.1038C352.02 43.8263 352.069 44.5642 352.069 45.315H358.069C358.069 44.3056 358.004 43.31 357.877 42.3323L351.927 43.1038ZM357.021 -0.355446L351.923 42.3626L357.881 43.0736L362.979 0.355599L357.021 -0.355446ZM274.592 28.1936L360.845 2.87866L359.155 -2.8785L272.902 22.4364L274.592 28.1936ZM140 28.315L273.747 28.315V22.315L140 22.315V28.315ZM123 45.315C123 35.9261 130.611 28.315 140 28.315V22.315C127.298 22.315 117 32.6124 117 45.315H123ZM123 215L123 45.315H117L117 215H123ZM140 232C130.611 232 123 224.389 123 215H117C117 227.703 127.298 238 140 238V232ZM335.069 232L140 232V238L335.069 238V232Z" fill="#056BA5" mask="url(#path-1-inside-1)"/>
</g>
<g filter="url(#filter1_d)">
<mask id="path-3-inside-2" fill="white">
<path fill-rule="evenodd" clip-rule="evenodd" d="M28.9313 118C17.8856 118 8.93127 126.954 8.93127 138V307.685C8.93127 308.565 8.98811 309.432 9.09833 310.282L4 353L90.2528 327.685H224C235.045 327.685 244 318.731 244 307.685V138C244 126.954 235.045 118 224 118H28.9313Z"/>
</mask>
<path fill-rule="evenodd" clip-rule="evenodd" d="M28.9313 118C17.8856 118 8.93127 126.954 8.93127 138V307.685C8.93127 308.565 8.98811 309.432 9.09833 310.282L4 353L90.2528 327.685H224C235.045 327.685 244 318.731 244 307.685V138C244 126.954 235.045 118 224 118H28.9313Z" fill="white"/>
<path d="M9.09833 310.282L12.0772 310.637L12.1214 310.267L12.0734 309.896L9.09833 310.282ZM4 353L1.02114 352.644L0.482344 357.159L4.84485 355.879L4 353ZM90.2528 327.685V324.685H89.8217L89.408 324.806L90.2528 327.685ZM11.9313 138C11.9313 128.611 19.5424 121 28.9313 121V115C16.2287 115 5.93127 125.297 5.93127 138H11.9313ZM11.9313 307.685V138H5.93127V307.685H11.9313ZM12.0734 309.896C11.9798 309.174 11.9313 308.436 11.9313 307.685H5.93127C5.93127 308.694 5.99647 309.69 6.12323 310.668L12.0734 309.896ZM6.97886 353.355L12.0772 310.637L6.11947 309.926L1.02114 352.644L6.97886 353.355ZM89.408 324.806L3.15515 350.121L4.84485 355.879L91.0977 330.564L89.408 324.806ZM224 324.685H90.2528V330.685H224V324.685ZM241 307.685C241 317.074 233.389 324.685 224 324.685V330.685C236.702 330.685 247 320.388 247 307.685H241ZM241 138V307.685H247V138H241ZM224 121C233.389 121 241 128.611 241 138H247C247 125.297 236.702 115 224 115V121ZM28.9313 121H224V115H28.9313V121Z" fill="#056BA5" mask="url(#path-3-inside-2)"/>
</g>
<defs>
<filter id="filter0_d" x="116" y="0" width="248" height="245" filterUnits="userSpaceOnUse" color-interpolation-filters="sRGB">
<feFlood flood-opacity="0" result="BackgroundImageFix"/>
<feColorMatrix in="SourceAlpha" type="matrix" values="0 0 0 0 0 0 0 0 0 0 0 0 0 0 0 0 0 0 127 0"/>
<feOffset dy="6"/>
<feGaussianBlur stdDeviation="2"/>
<feColorMatrix type="matrix" values="0 0 0 0 0 0 0 0 0 0 0 0 0 0 0 0 0 0 0.25 0"/>
<feBlend mode="normal" in2="BackgroundImageFix" result="effect1_dropShadow"/>
<feBlend mode="normal" in="SourceGraphic" in2="effect1_dropShadow" result="shape"/>
</filter>
<filter id="filter1_d" x="0" y="118" width="248" height="245" filterUnits="userSpaceOnUse" color-interpolation-filters="sRGB">
<feFlood flood-opacity="0" result="BackgroundImageFix"/>
<feColorMatrix in="SourceAlpha" type="matrix" values="0 0 0 0 0 0 0 0 0 0 0 0 0 0 0 0 0 0 127 0"/>
<feOffset dy="6"/>
<feGaussianBlur stdDeviation="2"/>
<feColorMatrix type="matrix" values="0 0 0 0 0 0 0 0 0 0 0 0 0 0 0 0 0 0 0.25 0"/>
<feBlend mode="normal" in2="BackgroundImageFix" result="effect1_dropShadow"/>
<feBlend mode="normal" in="SourceGraphic" in2="effect1_dropShadow" result="shape"/>
</filter>
</defs>
</svg>
