<svg width="199" height="47" viewBox="0 0 199 47" fill="none" xmlns="http://www.w3.org/2000/svg">
<path d="M48 23.5C48 36.4787 37.2548 47 24 47C10.7452 47 0 36.4787 0 23.5C0 10.5213 10.7452 0 24 0C37.2548 0 48 10.5213 48 23.5Z" fill="#056Ba5"/>
<g filter="url(#filter0_d)">
<path fill-rule="evenodd" clip-rule="evenodd" d="M23.79 12.1316H12.8426C11.1857 12.1316 9.84259 13.4747 9.84259 15.1316V25.6842C9.84259 27.3411 11.1857 28.6842 12.8426 28.6842H23.79C25.4468 28.6842 26.79 27.3411 26.79 25.6842V15.1316C26.79 13.4747 25.4468 12.1316 23.79 12.1316ZM12.8426 11.1316C10.6335 11.1316 8.84259 12.9225 8.84259 15.1316V25.6842C8.84259 27.8934 10.6334 29.6842 12.8426 29.6842H23.79C25.9991 29.6842 27.79 27.8934 27.79 25.6842V15.1316C27.79 12.9225 25.9991 11.1316 23.79 11.1316H12.8426Z" fill="white"/>
</g>
<g filter="url(#filter1_d)">
<path d="M7.57907 34.0132L9.00061 23.5L10.5006 29L17.5006 29.375L25.0006 29.5L7.57907 34.0132Z" fill="white"/>
</g>
<g filter="url(#filter2_d)">
<path fill-rule="evenodd" clip-rule="evenodd" d="M23.5794 34.8684H34.5267C36.1836 34.8684 37.5267 33.5253 37.5267 31.8684V21.3158C37.5267 19.6589 36.1836 18.3158 34.5267 18.3158H23.5794C21.9225 18.3158 20.5794 19.6589 20.5794 21.3158V31.8684C20.5794 33.5253 21.9225 34.8684 23.5794 34.8684ZM34.5267 35.8684C36.7359 35.8684 38.5267 34.0775 38.5267 31.8684V21.3158C38.5267 19.1066 36.7359 17.3158 34.5267 17.3158H23.5794C21.3702 17.3158 19.5794 19.1066 19.5794 21.3158V31.8684C19.5794 34.0775 21.3702 35.8684 23.5794 35.8684H34.5267Z" fill="white"/>
</g>
<path d="M39.79 12.9868L38.5006 23.5L36.5 18L22.5006 17.5L39.79 12.9868Z" fill="white"/>
<path d="M64.865 18.014C65.299 18.238 65.516 18.595 65.516 19.085C65.516 19.379 65.411 19.666 65.201 19.946C64.977 20.24 64.69 20.387 64.34 20.387C64.102 20.387 63.864 20.324 63.626 20.198C62.94 19.876 62.198 19.715 61.4 19.715C60.42 19.715 59.566 19.925 58.838 20.345C58.11 20.751 57.55 21.332 57.158 22.088C56.766 22.83 56.57 23.684 56.57 24.65C56.57 26.302 57.011 27.555 57.893 28.409C58.789 29.263 59.958 29.69 61.4 29.69C62.254 29.69 62.996 29.529 63.626 29.207C63.878 29.095 64.102 29.039 64.298 29.039C64.662 29.039 64.97 29.193 65.222 29.501C65.432 29.767 65.537 30.054 65.537 30.362C65.537 30.586 65.481 30.789 65.369 30.971C65.257 31.153 65.096 31.293 64.886 31.391C63.794 31.937 62.632 32.21 61.4 32.21C60.028 32.21 58.768 31.923 57.62 31.349C56.472 30.761 55.555 29.9 54.869 28.766C54.183 27.632 53.84 26.26 53.84 24.65C53.84 23.222 54.162 21.941 54.806 20.807C55.464 19.673 56.367 18.791 57.515 18.161C58.663 17.517 59.958 17.195 61.4 17.195C62.646 17.195 63.801 17.468 64.865 18.014ZM79.375 26.393C79.375 27.513 79.123 28.521 78.619 29.417C78.115 30.299 77.422 30.985 76.54 31.475C75.672 31.965 74.713 32.21 73.663 32.21C72.599 32.21 71.633 31.965 70.765 31.475C69.897 30.985 69.211 30.299 68.707 29.417C68.203 28.521 67.951 27.513 67.951 26.393C67.951 25.273 68.203 24.272 68.707 23.39C69.211 22.494 69.897 21.801 70.765 21.311C71.633 20.807 72.599 20.555 73.663 20.555C74.713 20.555 75.672 20.807 76.54 21.311C77.422 21.801 78.115 22.494 78.619 23.39C79.123 24.272 79.375 25.273 79.375 26.393ZM76.855 26.393C76.855 25.707 76.708 25.098 76.414 24.566C76.134 24.02 75.749 23.6 75.259 23.306C74.783 23.012 74.251 22.865 73.663 22.865C73.075 22.865 72.536 23.012 72.046 23.306C71.57 23.6 71.185 24.02 70.891 24.566C70.611 25.098 70.471 25.707 70.471 26.393C70.471 27.079 70.611 27.688 70.891 28.22C71.185 28.752 71.57 29.165 72.046 29.459C72.536 29.753 73.075 29.9 73.663 29.9C74.251 29.9 74.783 29.753 75.259 29.459C75.749 29.165 76.134 28.752 76.414 28.22C76.708 27.688 76.855 27.079 76.855 26.393ZM88.5364 20.555C89.9644 20.555 90.9514 20.982 91.4974 21.836C92.0434 22.676 92.3164 23.845 92.3164 25.343V30.719C92.3164 31.083 92.1974 31.391 91.9594 31.643C91.7214 31.881 91.4204 32 91.0564 32C90.6924 32 90.3914 31.881 90.1534 31.643C89.9154 31.391 89.7964 31.083 89.7964 30.719V25.343C89.7964 24.573 89.6354 23.971 89.3134 23.537C88.9914 23.089 88.4384 22.865 87.6544 22.865C86.8424 22.865 86.2054 23.103 85.7434 23.579C85.2814 24.041 85.0504 24.629 85.0504 25.343V30.719C85.0504 31.083 84.9314 31.391 84.6934 31.643C84.4554 31.881 84.1544 32 83.7904 32C83.4264 32 83.1254 31.881 82.8874 31.643C82.6494 31.391 82.5304 31.083 82.5304 30.719V22.046C82.5304 21.682 82.6494 21.381 82.8874 21.143C83.1254 20.891 83.4264 20.765 83.7904 20.765C84.1544 20.765 84.4554 20.891 84.6934 21.143C84.9314 21.381 85.0504 21.682 85.0504 22.046V22.403C85.4284 21.899 85.9184 21.465 86.5204 21.101C87.1364 20.737 87.8084 20.555 88.5364 20.555ZM102.096 20.555C103.524 20.555 104.511 20.982 105.057 21.836C105.603 22.676 105.876 23.845 105.876 25.343V30.719C105.876 31.083 105.757 31.391 105.519 31.643C105.281 31.881 104.98 32 104.616 32C104.252 32 103.951 31.881 103.713 31.643C103.475 31.391 103.356 31.083 103.356 30.719V25.343C103.356 24.573 103.195 23.971 102.873 23.537C102.551 23.089 101.998 22.865 101.214 22.865C100.402 22.865 99.7652 23.103 99.3032 23.579C98.8412 24.041 98.6102 24.629 98.6102 25.343V30.719C98.6102 31.083 98.4912 31.391 98.2532 31.643C98.0152 31.881 97.7142 32 97.3502 32C96.9862 32 96.6852 31.881 96.4472 31.643C96.2092 31.391 96.0902 31.083 96.0902 30.719V22.046C96.0902 21.682 96.2092 21.381 96.4472 21.143C96.6852 20.891 96.9862 20.765 97.3502 20.765C97.7142 20.765 98.0152 20.891 98.2532 21.143C98.4912 21.381 98.6102 21.682 98.6102 22.046V22.403C98.9882 21.899 99.4782 21.465 100.08 21.101C100.696 20.737 101.368 20.555 102.096 20.555ZM119.73 26.12C119.716 26.456 119.583 26.729 119.331 26.939C119.079 27.149 118.785 27.254 118.449 27.254H111.519C111.687 28.08 112.072 28.731 112.674 29.207C113.276 29.669 113.955 29.9 114.711 29.9C115.285 29.9 115.733 29.851 116.055 29.753C116.377 29.641 116.629 29.529 116.811 29.417C117.007 29.291 117.14 29.207 117.21 29.165C117.462 29.039 117.7 28.976 117.924 28.976C118.218 28.976 118.47 29.081 118.68 29.291C118.89 29.501 118.995 29.746 118.995 30.026C118.995 30.404 118.799 30.747 118.407 31.055C118.015 31.377 117.49 31.65 116.832 31.874C116.174 32.098 115.509 32.21 114.837 32.21C113.661 32.21 112.632 31.965 111.75 31.475C110.882 30.985 110.21 30.313 109.734 29.459C109.258 28.591 109.02 27.618 109.02 26.54C109.02 25.336 109.272 24.279 109.776 23.369C110.28 22.459 110.945 21.766 111.771 21.29C112.597 20.8 113.479 20.555 114.417 20.555C115.341 20.555 116.209 20.807 117.021 21.311C117.847 21.815 118.505 22.494 118.995 23.348C119.485 24.202 119.73 25.126 119.73 26.12ZM114.417 22.865C112.793 22.865 111.834 23.628 111.54 25.154H117.042V25.007C116.986 24.419 116.699 23.915 116.181 23.495C115.663 23.075 115.075 22.865 114.417 22.865ZM127.775 20.555C128.965 20.555 129.924 20.744 130.652 21.122C131.38 21.486 131.744 21.976 131.744 22.592C131.744 22.9 131.653 23.173 131.471 23.411C131.289 23.635 131.051 23.747 130.757 23.747C130.533 23.747 130.351 23.719 130.211 23.663C130.071 23.593 129.931 23.509 129.791 23.411C129.665 23.299 129.539 23.208 129.413 23.138C129.273 23.068 129.063 23.005 128.783 22.949C128.517 22.893 128.3 22.865 128.132 22.865C127.082 22.865 126.256 23.194 125.654 23.852C125.066 24.496 124.772 25.343 124.772 26.393C124.772 27.401 125.073 28.241 125.675 28.913C126.277 29.571 127.047 29.9 127.985 29.9C128.671 29.9 129.182 29.816 129.518 29.648C129.602 29.606 129.714 29.536 129.854 29.438C130.008 29.326 130.148 29.242 130.274 29.186C130.4 29.13 130.554 29.102 130.736 29.102C131.086 29.102 131.359 29.214 131.555 29.438C131.765 29.662 131.87 29.949 131.87 30.299C131.87 30.635 131.674 30.95 131.282 31.244C130.89 31.538 130.372 31.776 129.728 31.958C129.084 32.126 128.398 32.21 127.67 32.21C126.592 32.21 125.64 31.958 124.814 31.454C124.002 30.95 123.372 30.257 122.924 29.375C122.476 28.479 122.252 27.485 122.252 26.393C122.252 25.259 122.483 24.251 122.945 23.369C123.421 22.487 124.079 21.801 124.919 21.311C125.759 20.807 126.711 20.555 127.775 20.555ZM140.157 29.627C140.353 29.627 140.528 29.725 140.682 29.921C140.85 30.103 140.934 30.348 140.934 30.656C140.934 31.034 140.724 31.356 140.304 31.622C139.898 31.874 139.436 32 138.918 32C138.05 32 137.315 31.818 136.713 31.454C136.125 31.076 135.831 30.285 135.831 29.081V23.285H134.865C134.529 23.285 134.249 23.173 134.025 22.949C133.801 22.725 133.689 22.445 133.689 22.109C133.689 21.787 133.801 21.521 134.025 21.311C134.249 21.087 134.529 20.975 134.865 20.975H135.831V19.631C135.831 19.267 135.95 18.966 136.188 18.728C136.44 18.476 136.748 18.35 137.112 18.35C137.462 18.35 137.756 18.476 137.994 18.728C138.232 18.966 138.351 19.267 138.351 19.631V20.975H139.842C140.178 20.975 140.458 21.087 140.682 21.311C140.906 21.535 141.018 21.815 141.018 22.151C141.018 22.473 140.906 22.746 140.682 22.97C140.458 23.18 140.178 23.285 139.842 23.285H138.351V28.976C138.351 29.27 138.428 29.487 138.582 29.627C138.736 29.753 138.946 29.816 139.212 29.816C139.324 29.816 139.478 29.788 139.674 29.732C139.842 29.662 140.003 29.627 140.157 29.627ZM156.877 27.884C156.863 27.968 156.856 28.08 156.856 28.22C156.856 28.556 156.933 28.808 157.087 28.976C157.255 29.144 157.465 29.228 157.717 29.228C158.263 29.228 158.767 28.962 159.229 28.43C159.691 27.884 160.062 27.184 160.342 26.33C160.622 25.462 160.762 24.58 160.762 23.684C160.762 22.704 160.531 21.843 160.069 21.101C159.607 20.345 158.949 19.764 158.095 19.358C157.241 18.938 156.247 18.728 155.113 18.728C153.321 18.728 151.697 19.085 150.241 19.799C148.785 20.513 147.637 21.549 146.797 22.907C145.957 24.251 145.537 25.84 145.537 27.674C145.537 28.738 145.754 29.732 146.188 30.656C146.622 31.58 147.301 32.329 148.225 32.903C149.149 33.477 150.311 33.764 151.711 33.764C152.775 33.764 153.643 33.659 154.315 33.449C154.987 33.253 155.694 32.945 156.436 32.525C156.59 32.441 156.723 32.399 156.835 32.399C157.115 32.399 157.325 32.574 157.465 32.924C157.507 33.008 157.528 33.092 157.528 33.176C157.528 33.484 157.262 33.778 156.73 34.058C155.876 34.492 155.085 34.821 154.357 35.045C153.629 35.283 152.747 35.402 151.711 35.402C149.919 35.402 148.435 35.038 147.259 34.31C146.083 33.582 145.222 32.637 144.676 31.475C144.13 30.299 143.857 29.032 143.857 27.674C143.857 25.546 144.354 23.684 145.348 22.088C146.342 20.478 147.693 19.246 149.401 18.392C151.109 17.524 153.013 17.09 155.113 17.09C156.653 17.09 157.976 17.384 159.082 17.972C160.188 18.56 161.021 19.351 161.581 20.345C162.155 21.339 162.442 22.452 162.442 23.684C162.442 24.86 162.211 26.001 161.749 27.107C161.287 28.199 160.629 29.095 159.775 29.795C158.921 30.495 157.934 30.845 156.814 30.845C156.24 30.845 155.722 30.684 155.26 30.362C154.812 30.04 154.532 29.627 154.42 29.123C153.762 30.271 152.726 30.845 151.312 30.845C150.78 30.845 150.269 30.705 149.779 30.425C149.303 30.145 148.918 29.739 148.624 29.207C148.33 28.675 148.183 28.066 148.183 27.38C148.183 26.498 148.407 25.581 148.855 24.629C149.317 23.677 149.933 22.886 150.703 22.256C151.487 21.612 152.32 21.29 153.202 21.29C153.678 21.29 154.105 21.423 154.483 21.689C154.875 21.941 155.169 22.298 155.365 22.76L155.449 22.193C155.491 21.969 155.603 21.773 155.785 21.605C155.981 21.437 156.254 21.353 156.604 21.353C157.36 21.353 157.738 21.654 157.738 22.256C157.738 22.396 157.731 22.508 157.717 22.592L156.877 27.884ZM154.63 26.477C154.854 25.805 154.966 25.245 154.966 24.797C154.966 24.223 154.812 23.81 154.504 23.558C154.196 23.306 153.797 23.18 153.307 23.18C152.775 23.18 152.292 23.397 151.858 23.831C151.438 24.265 151.109 24.811 150.871 25.469C150.647 26.113 150.535 26.736 150.535 27.338C150.535 27.87 150.661 28.276 150.913 28.556C151.165 28.822 151.515 28.955 151.963 28.955C152.411 28.955 152.817 28.822 153.181 28.556C153.559 28.276 153.867 27.947 154.105 27.569C154.357 27.177 154.532 26.813 154.63 26.477ZM176.173 18.014C176.607 18.238 176.824 18.595 176.824 19.085C176.824 19.379 176.719 19.666 176.509 19.946C176.285 20.24 175.998 20.387 175.648 20.387C175.41 20.387 175.172 20.324 174.934 20.198C174.248 19.876 173.506 19.715 172.708 19.715C171.728 19.715 170.874 19.925 170.146 20.345C169.418 20.751 168.858 21.332 168.466 22.088C168.074 22.83 167.878 23.684 167.878 24.65C167.878 26.302 168.319 27.555 169.201 28.409C170.097 29.263 171.266 29.69 172.708 29.69C173.562 29.69 174.304 29.529 174.934 29.207C175.186 29.095 175.41 29.039 175.606 29.039C175.97 29.039 176.278 29.193 176.53 29.501C176.74 29.767 176.845 30.054 176.845 30.362C176.845 30.586 176.789 30.789 176.677 30.971C176.565 31.153 176.404 31.293 176.194 31.391C175.102 31.937 173.94 32.21 172.708 32.21C171.336 32.21 170.076 31.923 168.928 31.349C167.78 30.761 166.863 29.9 166.177 28.766C165.491 27.632 165.148 26.26 165.148 24.65C165.148 23.222 165.47 21.941 166.114 20.807C166.772 19.673 167.675 18.791 168.823 18.161C169.971 17.517 171.266 17.195 172.708 17.195C173.954 17.195 175.109 17.468 176.173 18.014ZM188.982 20.555C189.346 20.555 189.647 20.674 189.885 20.912C190.123 21.15 190.242 21.458 190.242 21.836V30.719C190.242 31.083 190.123 31.391 189.885 31.643C189.647 31.881 189.346 32 188.982 32C188.618 32 188.317 31.881 188.079 31.643C187.855 31.405 187.736 31.104 187.722 30.74C187.372 31.146 186.896 31.496 186.294 31.79C185.706 32.07 185.083 32.21 184.425 32.21C183.459 32.21 182.584 31.965 181.8 31.475C181.016 30.971 180.393 30.278 179.931 29.396C179.483 28.514 179.259 27.513 179.259 26.393C179.259 25.273 179.483 24.272 179.931 23.39C180.379 22.494 180.988 21.801 181.758 21.311C182.542 20.807 183.403 20.555 184.341 20.555C185.013 20.555 185.643 20.681 186.231 20.933C186.819 21.171 187.316 21.479 187.722 21.857V21.836C187.722 21.472 187.841 21.171 188.079 20.933C188.317 20.681 188.618 20.555 188.982 20.555ZM184.74 29.9C185.65 29.9 186.392 29.571 186.966 28.913C187.54 28.241 187.827 27.401 187.827 26.393C187.827 25.385 187.54 24.545 186.966 23.873C186.392 23.201 185.65 22.865 184.74 22.865C183.844 22.865 183.109 23.201 182.535 23.873C181.961 24.545 181.674 25.385 181.674 26.393C181.674 27.401 181.954 28.241 182.514 28.913C183.088 29.571 183.83 29.9 184.74 29.9ZM196.753 30.719C196.753 31.083 196.627 31.391 196.375 31.643C196.137 31.881 195.836 32 195.472 32C195.122 32 194.828 31.881 194.59 31.643C194.352 31.391 194.233 31.083 194.233 30.719V17.741C194.233 17.377 194.352 17.076 194.59 16.838C194.842 16.586 195.15 16.46 195.514 16.46C195.864 16.46 196.158 16.586 196.396 16.838C196.634 17.076 196.753 17.377 196.753 17.741V30.719Z" fill="#056Ba5"/>
<defs>
<filter id="filter0_d" x="4.84259" y="11.1316" width="26.9474" height="26.5526" filterUnits="userSpaceOnUse" color-interpolation-filters="sRGB">
<feFlood flood-opacity="0" result="BackgroundImageFix"/>
<feColorMatrix in="SourceAlpha" type="matrix" values="0 0 0 0 0 0 0 0 0 0 0 0 0 0 0 0 0 0 127 0"/>
<feOffset dy="4"/>
<feGaussianBlur stdDeviation="2"/>
<feColorMatrix type="matrix" values="0 0 0 0 0 0 0 0 0 0 0 0 0 0 0 0 0 0 0.25 0"/>
<feBlend mode="normal" in2="BackgroundImageFix" result="effect1_dropShadow"/>
<feBlend mode="normal" in="SourceGraphic" in2="effect1_dropShadow" result="shape"/>
</filter>
<filter id="filter1_d" x="3.5791" y="23.5" width="25.4215" height="18.5132" filterUnits="userSpaceOnUse" color-interpolation-filters="sRGB">
<feFlood flood-opacity="0" result="BackgroundImageFix"/>
<feColorMatrix in="SourceAlpha" type="matrix" values="0 0 0 0 0 0 0 0 0 0 0 0 0 0 0 0 0 0 127 0"/>
<feOffset dy="4"/>
<feGaussianBlur stdDeviation="2"/>
<feColorMatrix type="matrix" values="0 0 0 0 0 0 0 0 0 0 0 0 0 0 0 0 0 0 0.25 0"/>
<feBlend mode="normal" in2="BackgroundImageFix" result="effect1_dropShadow"/>
<feBlend mode="normal" in="SourceGraphic" in2="effect1_dropShadow" result="shape"/>
</filter>
<filter id="filter2_d" x="15.5793" y="17.3158" width="26.9474" height="26.5526" filterUnits="userSpaceOnUse" color-interpolation-filters="sRGB">
<feFlood flood-opacity="0" result="BackgroundImageFix"/>
<feColorMatrix in="SourceAlpha" type="matrix" values="0 0 0 0 0 0 0 0 0 0 0 0 0 0 0 0 0 0 127 0"/>
<feOffset dy="4"/>
<feGaussianBlur stdDeviation="2"/>
<feColorMatrix type="matrix" values="0 0 0 0 0 0 0 0 0 0 0 0 0 0 0 0 0 0 0.25 0"/>
<feBlend mode="normal" in2="BackgroundImageFix" result="effect1_dropShadow"/>
<feBlend mode="normal" in="SourceGraphic" in2="effect1_dropShadow" result="shape"/>
</filter>
</defs>
</svg>
